<svg width="48" height="45" viewBox="0 0 48 45" fill="none" xmlns="http://www.w3.org/2000/svg">
<path d="M45.2847 27.005L23.9847 42.485L2.68466 27.005C2.39911 26.795 2.1873 26.5001 2.07953 26.1624C1.97176 25.8247 1.97356 25.4616 2.08466 25.125L4.52466 17.565L9.40466 2.54502C9.452 2.42263 9.52734 2.31304 9.62466 2.22502C9.78314 2.08026 9.99002 2 10.2047 2C10.4193 2 10.6262 2.08026 10.7847 2.22502C10.8874 2.32435 10.9632 2.44826 11.0047 2.58502L15.8847 17.565H32.0847L36.9647 2.54502C37.012 2.42263 37.0873 2.31304 37.1847 2.22502C37.3431 2.08026 37.55 2 37.7647 2C37.9793 2 38.1862 2.08026 38.3447 2.22502C38.4474 2.32435 38.5232 2.44826 38.5647 2.58502L43.4447 17.605L45.9847 25.125C46.0857 25.472 46.0722 25.8423 45.9461 26.181C45.82 26.5196 45.588 26.8086 45.2847 27.005Z" stroke="#1E1E1E" stroke-width="4" stroke-linecap="round" stroke-linejoin="round"/>
</svg>
