<svg width="48" height="48" viewBox="0 0 48 48" fill="none" xmlns="http://www.w3.org/2000/svg">
<g clip-path="url(#clip0_11_1271)">
<path d="M45.3 28.78L24 44.26L2.70004 28.78C2.41449 28.57 2.20268 28.2751 2.09491 27.9374C1.98714 27.5997 1.98894 27.2366 2.10004 26.9L4.54004 19.34L9.42004 4.32004C9.46738 4.19766 9.54272 4.08806 9.64004 4.00004C9.79852 3.85529 10.0054 3.77502 10.22 3.77502C10.4347 3.77502 10.6416 3.85529 10.8 4.00004C10.9028 4.09937 10.9785 4.22328 11.02 4.36004L15.9 19.34H32.1L36.98 4.32004C37.0274 4.19766 37.1027 4.08806 37.2 4.00004C37.3585 3.85529 37.5654 3.77502 37.78 3.77502C37.9947 3.77502 38.2016 3.85529 38.36 4.00004C38.4628 4.09937 38.5385 4.22328 38.58 4.36004L43.46 19.38L46 26.9C46.1011 27.247 46.0876 27.6173 45.9615 27.956C45.8354 28.2947 45.6034 28.5836 45.3 28.78Z" stroke="black" stroke-width="4" stroke-linecap="round" stroke-linejoin="round"/>
</g>
<defs>
<clipPath id="clip0_11_1271">
<rect width="48" height="48" fill="white"/>
</clipPath>
</defs>
</svg>
